<svg width="15" height="17" viewBox="0 0 15 17" fill="none" xmlns="http://www.w3.org/2000/svg">
<path d="M5.5 0C5.63261 0 5.75979 0.0526785 5.85355 0.146447C5.94732 0.240215 6 0.367392 6 0.5V2.5C6 2.63261 5.94732 2.75979 5.85355 2.85355C5.75979 2.94732 5.63261 3 5.5 3C5.36739 3 5.24021 2.94732 5.14645 2.85355C5.05268 2.75979 5 2.63261 5 2.5V0.5C5 0.367392 5.05268 0.240215 5.14645 0.146447C5.24021 0.0526785 5.36739 0 5.5 0ZM1.61 1.61C1.65645 1.56344 1.71162 1.52649 1.77237 1.50129C1.83311 1.47608 1.89823 1.46311 1.964 1.46311C2.02977 1.46311 2.09489 1.47608 2.15563 1.50129C2.21638 1.52649 2.27155 1.56344 2.318 1.61L3.732 3.025C3.77975 3.07112 3.81785 3.1263 3.84405 3.1873C3.87026 3.2483 3.88405 3.31391 3.88463 3.3803C3.8852 3.44669 3.87255 3.51253 3.84741 3.57398C3.82227 3.63543 3.78514 3.69125 3.7382 3.7382C3.69125 3.78514 3.63543 3.82227 3.57398 3.84741C3.51253 3.87255 3.44669 3.8852 3.3803 3.88463C3.31391 3.88405 3.2483 3.87026 3.1873 3.84405C3.1263 3.81785 3.07112 3.77975 3.025 3.732L1.611 2.318C1.51726 2.22424 1.46461 2.09708 1.46461 1.9645C1.46461 1.83192 1.51726 1.70476 1.611 1.611L1.61 1.61ZM9.39 1.61C9.43656 1.65645 9.47351 1.71162 9.49871 1.77237C9.52392 1.83311 9.53689 1.89823 9.53689 1.964C9.53689 2.02977 9.52392 2.09489 9.49871 2.15563C9.47351 2.21638 9.43656 2.27155 9.39 2.318L7.974 3.732C7.92788 3.77975 7.8727 3.81785 7.8117 3.84405C7.7507 3.87026 7.68509 3.88405 7.6187 3.88463C7.55231 3.8852 7.48647 3.87255 7.42502 3.84741C7.36357 3.82227 7.30775 3.78514 7.2608 3.7382C7.21386 3.69125 7.17673 3.63543 7.15159 3.57398C7.12645 3.51253 7.1138 3.44669 7.11438 3.3803C7.11495 3.31391 7.12874 3.2483 7.15495 3.1873C7.18115 3.1263 7.21924 3.07112 7.267 3.025L8.681 1.611C8.77476 1.51726 8.90192 1.46461 9.0345 1.46461C9.16708 1.46461 9.29424 1.51726 9.388 1.611L9.39 1.61ZM0 5.5C0 5.36739 0.0526785 5.24021 0.146447 5.14645C0.240215 5.05268 0.367392 5 0.5 5H2.5C2.63261 5 2.75979 5.05268 2.85355 5.14645C2.94732 5.24021 3 5.36739 3 5.5C3 5.63261 2.94732 5.75979 2.85355 5.85355C2.75979 5.94732 2.63261 6 2.5 6H0.5C0.367392 6 0.240215 5.94732 0.146447 5.85355C0.0526785 5.75979 0 5.63261 0 5.5ZM6.64 5.3C6.49406 5.17845 6.31653 5.10096 6.12816 5.07662C5.9398 5.05228 5.7484 5.08208 5.57636 5.16254C5.40431 5.24301 5.25874 5.3708 5.15667 5.53097C5.05461 5.69114 5.00026 5.87707 5 6.067V15.168C5 16.092 6.145 16.522 6.753 15.827L8.779 13.511C8.91992 13.3503 9.09355 13.2216 9.28826 13.1335C9.48297 13.0453 9.69427 12.9998 9.908 13H13.119C14.054 13 14.478 11.83 13.759 11.232L6.64 5.299V5.3ZM6 15.17V6.067L13.119 12H9.908C9.55155 12 9.19921 12.0761 8.87462 12.2234C8.55003 12.3707 8.26069 12.5857 8.026 12.854L6 15.169V15.17Z" fill="black" fill-opacity="0.5"/>
</svg>
