<svg width="33" height="24" viewBox="0 0 33 24" fill="none" xmlns="http://www.w3.org/2000/svg">
<g clip-path="url(#clip0_1056_1421)">
<path d="M1.84313 0.0375977H31.1506C32.1468 0.0375977 32.9581 0.88495 32.9581 1.92545V12.0002H0.0356445V1.92545C0.0356445 0.88495 0.846924 0.0375977 1.84313 0.0375977Z" fill="white"/>
<path d="M0.0356445 12H32.9641V22.0748C32.9641 23.1153 32.1528 23.9626 31.1566 23.9626H1.84313C0.846924 23.9626 0.0356445 23.109 0.0356445 22.0748V12V12Z" fill="#D52B1E"/>
<path d="M0.0356445 8.0127H32.9641V15.9878H0.0356445V8.0127Z" fill="#0039A6"/>
<path d="M1.84313 0.0375977H31.1506C32.1468 0.0375977 32.9581 0.88495 32.9581 1.92545V22.0687C32.9581 23.1092 32.1468 23.9566 31.1506 23.9566H1.84313C0.846924 23.9566 0.0356445 23.103 0.0356445 22.0687V1.92545C0.0356445 0.88495 0.846924 0.0375977 1.84313 0.0375977Z" stroke="#CCCCCC" stroke-width="0.1199" stroke-miterlimit="2.6131"/>
</g>
<defs>
<clipPath id="clip0_1056_1421">
<rect width="33" height="24" fill="white"/>
</clipPath>
</defs>
</svg>
