<svg width="31" height="22" viewBox="0 0 31 22" fill="none" xmlns="http://www.w3.org/2000/svg">
<g clip-path="url(#clip0_1056_1427)">
<path d="M1.70163 0H29.2928C30.2306 0 30.9944 0.779167 30.9944 1.73594V20.2583C30.9944 21.2151 30.2306 21.9943 29.2928 21.9943H1.70163C0.763768 22 0 21.2208 0 20.2641V1.73594C0 0.779167 0.763768 0 1.70163 0Z" fill="#B22234"/>
<path d="M0.0112319 1.56396H30.9944C31 1.62126 31.0056 1.67855 31.0056 1.74157V3.42594H0V1.73584C0 1.67855 0.00561594 1.62126 0.0112319 1.56396ZM31 4.96709V6.82334H0V4.96709H31ZM31 8.37021V10.2265H0V8.37021H31V8.37021ZM31 11.7733V13.6296H0V11.7733H31V11.7733ZM31 15.1765V17.0327H0V15.1765H31V15.1765ZM31 18.5796V20.2582C31 20.3155 30.9944 20.3785 30.9888 20.4358H0.0112319C0.00561594 20.3843 0 20.3213 0 20.264V18.5853H31V18.5796Z" fill="white"/>
<path d="M11.6812 0V11.8479H0V1.73594C0 0.779167 0.763768 0 1.70163 0H11.6812Z" fill="#3C3B6E"/>
<path d="M0.690754 1.63867L1.07825 2.87044L0.0561523 2.10846H1.32536L0.297638 2.87044L0.690754 1.63867Z" fill="white"/>
<path d="M0.690754 4.02197L1.07825 5.25374L0.0561523 4.49176H1.32536L0.297638 5.25374L0.690754 4.02197Z" fill="white"/>
<path d="M0.690754 6.40527L1.07825 7.63704L0.0561523 6.87506H1.32536L0.297638 7.63704L0.690754 6.40527Z" fill="white"/>
<path d="M0.690754 8.78857L1.07825 10.0203L0.0561523 9.25837H1.32536L0.297638 10.0203L0.690754 8.78857Z" fill="white"/>
<path d="M2.06087 0.446777L2.45399 1.67855L1.42627 0.916569H2.70109L1.66776 1.67855L2.06087 0.446777Z" fill="white"/>
<path d="M2.06087 2.83008L2.45399 4.06185L1.42627 3.29987H2.70109L1.66776 4.06185L2.06087 2.83008Z" fill="white"/>
<path d="M2.06087 5.21338L2.45399 6.44515L1.42627 5.68317H2.70109L1.66776 6.44515L2.06087 5.21338Z" fill="white"/>
<path d="M2.06087 7.59668L2.45399 8.82845L1.42627 8.06647H2.70109L1.66776 8.82845L2.06087 7.59668Z" fill="white"/>
<path d="M2.06087 9.97998L2.45399 11.2118L1.42627 10.4498H2.70109L1.66776 11.2118L2.06087 9.97998Z" fill="white"/>
<path d="M3.43685 1.63867L3.82996 2.87044L2.80225 2.10846H4.07145L3.04373 2.87044L3.43685 1.63867Z" fill="white"/>
<path d="M3.43685 4.02197L3.82996 5.25374L2.80225 4.49176H4.07145L3.04373 5.25374L3.43685 4.02197Z" fill="white"/>
<path d="M3.43685 6.40527L3.82996 7.63704L2.80225 6.87506H4.07145L3.04373 7.63704L3.43685 6.40527Z" fill="white"/>
<path d="M3.43685 8.78857L3.82996 10.0203L2.80225 9.25837H4.07145L3.04373 10.0203L3.43685 8.78857Z" fill="white"/>
<path d="M4.81282 0.446777L5.20032 1.67855L4.17822 0.916569H5.44743L4.41971 1.67855L4.81282 0.446777Z" fill="white"/>
<path d="M4.81282 2.83008L5.20032 4.06185L4.17822 3.29987H5.44743L4.41971 4.06185L4.81282 2.83008Z" fill="white"/>
<path d="M4.81282 5.21338L5.20032 6.44515L4.17822 5.68317H5.44743L4.41971 6.44515L4.81282 5.21338Z" fill="white"/>
<path d="M4.81282 7.59668L5.20032 8.82845L4.17822 8.06647H5.44743L4.41971 8.82845L4.81282 7.59668Z" fill="white"/>
<path d="M4.81282 9.97998L5.20032 11.2118L4.17822 10.4498H5.44743L4.41971 11.2118L4.81282 9.97998Z" fill="white"/>
<path d="M6.18294 1.63867L6.57606 2.87044L5.54834 2.10846H6.81754L5.78983 2.87044L6.18294 1.63867Z" fill="white"/>
<path d="M6.18294 4.02197L6.57606 5.25374L5.54834 4.49176H6.81754L5.78983 5.25374L6.18294 4.02197Z" fill="white"/>
<path d="M6.18294 6.40527L6.57606 7.63704L5.54834 6.87506H6.81754L5.78983 7.63704L6.18294 6.40527Z" fill="white"/>
<path d="M6.18294 8.78857L6.57606 10.0203L5.54834 9.25837H6.81754L5.78983 10.0203L6.18294 8.78857Z" fill="white"/>
<path d="M7.55892 0.446777L7.95203 1.67855L6.92432 0.916569H8.19352L7.1658 1.67855L7.55892 0.446777Z" fill="white"/>
<path d="M7.55892 2.83008L7.95203 4.06185L6.92432 3.29987H8.19352L7.1658 4.06185L7.55892 2.83008Z" fill="white"/>
<path d="M7.55892 5.21338L7.95203 6.44515L6.92432 5.68317H8.19352L7.1658 6.44515L7.55892 5.21338Z" fill="white"/>
<path d="M7.55892 7.59668L7.95203 8.82845L6.92432 8.06647H8.19352L7.1658 8.82845L7.55892 7.59668Z" fill="white"/>
<path d="M7.55892 9.97998L7.95203 11.2118L6.92432 10.4498H8.19352L7.1658 11.2118L7.55892 9.97998Z" fill="white"/>
<path d="M8.92952 1.63867L9.32264 2.87044L8.29492 2.10846H9.56413L8.54202 2.87044L8.92952 1.63867Z" fill="white"/>
<path d="M8.92952 4.02197L9.32264 5.25374L8.29492 4.49176H9.56413L8.54202 5.25374L8.92952 4.02197Z" fill="white"/>
<path d="M8.92952 6.40527L9.32264 7.63704L8.29492 6.87506H9.56413L8.54202 7.63704L8.92952 6.40527Z" fill="white"/>
<path d="M8.92952 8.78857L9.32264 10.0203L8.29492 9.25837H9.56413L8.54202 10.0203L8.92952 8.78857Z" fill="white"/>
<path d="M10.305 0.446777L10.6981 1.67855L9.67041 0.916569H10.9396L9.9119 1.67855L10.305 0.446777Z" fill="white"/>
<path d="M10.305 2.83008L10.6981 4.06185L9.67041 3.29987H10.9396L9.9119 4.06185L10.305 2.83008Z" fill="white"/>
<path d="M10.305 5.21338L10.6981 6.44515L9.67041 5.68317H10.9396L9.9119 6.44515L10.305 5.21338Z" fill="white"/>
<path d="M10.305 7.59668L10.6981 8.82845L9.67041 8.06647H10.9396L9.9119 8.82845L10.305 7.59668Z" fill="white"/>
<path d="M10.305 9.97998L10.6981 11.2118L9.67041 10.4498H10.9396L9.9119 11.2118L10.305 9.97998Z" fill="white"/>
</g>
<defs>
<clipPath id="clip0_1056_1427">
<rect width="31" height="22" fill="white"/>
</clipPath>
</defs>
</svg>
